<svg xmlns="http://www.w3.org/2000/svg" width="370.99" height="368.66" viewBox="0 0 370.99 368.66"><defs><style>.cls-1{fill:none;stroke:#000;stroke-miterlimit:10;}</style></defs><g id="Layer_3" data-name="Layer 3"><path class="cls-1" d="M308.39,243.56c-17.25-4.48-33.87-9.45-43.43-14-4.24-2-5.94-6.75-5-11.36,2-10,3.87-28.63,8.62-37.55,1.13-2.1,1.11-4.64,2.79-6.33l2.86-2.86a9.55,9.55,0,0,0,2.79-6.3l2.1-43.65s.25-4.18-1-6.28a9.08,9.08,0,0,1-.84-7.8c6.1-16.07,8.3-52.54-59.78-101.53a9.46,9.46,0,0,0-3.18-1.49c-7.11-1.84-34.48-7.85-61.58.14a9.21,9.21,0,0,0-2.29,1C141,11.38,76.33,54.51,108.7,125.11a9.51,9.51,0,0,1-.11,8.11l-.68,1.41a9.6,9.6,0,0,0-.24,7.8l10.52,25.65s13.45,35.84,24,56.58a9.56,9.56,0,0,1-7.65,13.89c-23,2-64.93,7.29-80.91,19.1a227.6,227.6,0,0,0-41.83,40.41A51.83,51.83,0,0,0,.5,330.44v28.15a9.57,9.57,0,0,0,9.57,9.57H360.92a9.57,9.57,0,0,0,9.57-9.57V324A83,83,0,0,0,308.39,243.56Z"/><path class="cls-1" d="M166.38,252.56a26,26,0,0,1,3.46,2.21c7,5.39,33.9,23,58.93-1.42L257.86,225s27.22-90.2,0-146.27S153.94,40.8,153.94,40.8s-34.94,5.27-40.4,68.45S148.27,242.9,166.38,252.56Z"/><polygon class="cls-1" points="254.23 98.95 235.8 93.97 206.41 103.43 206.41 110.4 235.8 99.94 254.23 98.95"/><polygon class="cls-1" points="171.04 110.4 171.04 116.88 139.66 110.4 121.23 113.64 137.17 105.92 171.04 110.4"/><path class="cls-1" d="M206.41,119.37s-11.46,18.43,9,51.31c0,0,2.49,13.45-18.93,10.46,0,0-15.44,8.47-25.41-5.48,0,0,17.94-31.12,7.48-54.16"/><path class="cls-1" d="M168.55,133.32s-10.46-10.46-22.41-4.49l-12,6s7,9,17.19,6A72.65,72.65,0,0,0,168.55,133.32Z"/><path class="cls-1" d="M246.76,127s-7.47-7.85-18.43-5.49-15.94,8.33-15.94,8.33,14,6.24,17.93,4.36S246.76,127,246.76,127Z"/><path class="cls-1" d="M229.57,203.06s-8.21,3-23.16,0l-7.47,1.32-8.27-1.32s-14.15,8-22.12,6.47c0,0,15.2,16.94,30.51,13.45S229.57,203.06,229.57,203.06Z"/><ellipse class="cls-1" cx="150.84" cy="133.85" rx="6.95" ry="5.81"/><circle class="cls-1" cx="229.57" cy="125.26" r="2.54"/><circle class="cls-1" cx="150.84" cy="131.65" r="2.54"/><ellipse class="cls-1" cx="230.32" cy="127.18" rx="6.95" ry="5.54"/><polyline class="cls-1" points="103.1 242.38 199.06 313.67 287.1 237.61"/><path class="cls-1" d="M229.57,203.06s-26.24,17.8-61,6.47"/></g></svg>