<svg id="Layer_1" data-name="Layer 1" xmlns="http://www.w3.org/2000/svg" width="321.39mm" height="111.77mm" viewBox="0 0 911.04 316.84"><defs><style>.cls-1{fill:#fff;}</style></defs><g id="PGfUcp.tif"><path d="M434.33,263.3c0,5.95-.5,11.95.11,17.84,1.09,10.31,2.86,20.54,4.34,30.81.06.41.33.91.19,1.21-.6,1.26-1.33,2.46-2,3.68-.79-.85-2.06-1.57-2.3-2.55A157.21,157.21,0,0,1,431.22,298c-1.05-7.82-1.69-15.7-2.22-23.58a86.85,86.85,0,0,1,.19-12c.2-2.72-.88-4.3-3.13-5.62a76,76,0,0,0-29.65-9.66C376.32,244.7,357,248.81,338,254.9c-11.53,3.7-22.84,8.11-34.34,11.94-8.48,2.83-17.29,3.9-26.09,2a29,29,0,0,1-17.45-11.27c-7.7-10.29-12.11-22.13-15.37-34.36s-5.7-24.4-8.63-36.58c-1.36-5.68-3.27-11.16-6.84-15.92-2.74-3.66-6.23-4.18-9.86-1.34A24.29,24.29,0,0,0,211.73,180c-4.48,11.7-9.12,23.35-12.92,35.27-7,21.9-13.34,44-20.1,66-1.46,4.75-3.43,9.34-5.33,13.94-2.2,5.36-6.18,9.42-10.34,13.28a3.16,3.16,0,0,1-2.25.48c-1.82-.21-3.59-.74-5.41-.91-6.81-.65-9.74-5.94-12.71-10.88-6.47-10.72-10-22.54-12.47-34.74a143.74,143.74,0,0,0-4.57-16.26c-1-3.06-2.45-3.41-4.72-1.09a133.08,133.08,0,0,0-8.73,10.21c-3.27,4.09-6.29,8.38-9.58,12.45a18.16,18.16,0,0,1-10,6.26c-3,.75-4.26.32-5.8-2.4-1.39-2.45-3.13-4.88-3.77-7.54s-.19-5.57,0-8.37c.24-4.67.61-9.35.92-14l-.65-.15c-.84,2-1.61,4.08-2.52,6.08-4.94,10.78-9.65,21.68-14.94,32.29-4.36,8.73-11.53,14.94-20,19.63a4.43,4.43,0,0,1-2.34.51c-4.16-.24-8.31-.54-12.45-.94a4.71,4.71,0,0,1-2.37-1.13C12.18,284.45,3.79,266.62.84,246c-1.69-11.76-.4-23.56.19-35.37,1.21-24,9.7-45.8,19.21-67.38,9-20.52,17.68-41.23,28.93-60.68,3-5.23,6.7-10.1,10.19-15.06,5.56-7.9,14-11.85,22.37-15.72,1.42-.66,2.78-.76,3.69.8s-.5,2.43-1.5,3.17a22.87,22.87,0,0,1-4,2.5C69,63.38,61.42,71.91,55.43,82.08c-9.2,15.64-16.83,32.06-24.07,48.65-5.92,13.54-11.57,27.19-17.1,40.89-4.81,11.9-6.72,24.49-7.86,37.17-.81,8.94-1.54,17.93-1.46,26.89.17,18.3,6.41,34.63,17.56,49.08a40.61,40.61,0,0,0,5.56,5.72c6.24,5.48,13.48,5.86,20.32,1.22,8.81-6,14.15-14.7,18.37-24.1a598.9,598.9,0,0,0,24.46-64.44,18.21,18.21,0,0,1,1.47-3.69,8.65,8.65,0,0,1,2.07-1.79c.6.8,1.72,1.61,1.7,2.38a76.88,76.88,0,0,1-1,10.39c-2.24,12.84-4.75,25.63-6.93,38.48-.83,4.91-1.29,9.93.19,14.86,1.78,5.9,3.77,6.6,8,2.14,3.89-4.07,7.12-8.77,10.75-13.1,4.1-4.89,8.34-9.67,12.49-14.51.9-1.06,1.8-.94,3.06-.62,4.7,1.17,7.23,4.06,8.34,8.77,2.29,9.69,4.79,19.33,7.41,28.93,2,7.15,4.6,14.06,8.85,20.22,2.2,3.18,4.71,6,8.65,7.16a6.38,6.38,0,0,0,6.84-1.61c4.31-4.22,6.71-9.53,8.48-15.06,4.68-14.62,8.93-29.38,13.63-44q9.74-30.21,19.92-60.26c2.57-7.58,7.59-13.61,13.53-18.85a3.61,3.61,0,0,1,2.45-.72c2.81.21,5.63.52,8.42,1a4,4,0,0,1,2,1.51c5.89,7.54,8.55,16.42,10.55,25.56,3.13,14.35,5.66,28.89,11.09,42.6a109.84,109.84,0,0,0,9.63,19.32c6.77,10.41,17,13.87,29.08,12,10.6-1.59,20.43-5.76,30.38-9.5,12.53-4.72,25.18-9.08,38.51-10.91,15.8-2.16,31.7-3.43,47.4.34,6.07,1.45,11.79,4.37,17.67,6.65,1.06.41,2.08.91,3.35,1.48.6-5.08.89-9.87,1.77-14.56,3.14-16.81,6-33.67,9.82-50.34C453.54,131.71,472,77.68,491.57,24c2.74-7.51,5.91-14.82,10.75-21.28C504,.45,509.6-.85,512,.63a3.21,3.21,0,0,1,1.05,1.87c2.18,8.34,4.83,16.59,6.37,25.05q6.62,36.27,12.46,72.68c3.76,23.14,6.74,46.39,7.73,69.85.7,16.62,1.52,33.24,2.37,49.86a3.22,3.22,0,0,0,1.54,2.32c14.63,6.41,29.57,11.94,45.4,14.67a93.88,93.88,0,0,0,9.91,1.12,4.6,4.6,0,0,0,3.07-1.06,61.9,61.9,0,0,1,16.38-10.82c5.38-2.35,7.77-1.74,11.64,2.92-4.33,8.2-11.77,11.87-20.43,12.87-4.61.53-7.13,2.23-9,6.42-2.95,6.79-1.78,11.74,4.51,15.69s13.05,5.31,20.13,6c16.19,1.56,32.26,0,48.26-2.31a222.94,222.94,0,0,1,34.34-2.26c9.32.09,18.68.24,28-.51,6.49-.52,12.89-2.37,19.27-3.85,18-4.17,35.68-2.62,53.26,2.25q28.1,7.78,56.2,15.46a98.09,98.09,0,0,0,32.42,3c3.82-.25,7.65-.35,11.48-.34.89,0,1.78.72,2.67,1.12-.71.88-1.3,2.35-2.17,2.53-3.31.71-6.71,1-10.09,1.45-17.27,2.13-33.67-2.13-50.08-6.68q-26.88-7.45-53.92-14.33c-12.5-3.18-25.12-2.15-37.63.33-7,1.39-13.93,3.14-20.94,4.51a38,38,0,0,1-7.91.48c-8.66-.17-17.34-.92-26-.6-9.45.34-18.89,1.46-28.3,2.56-17.81,2.09-35.65,3.33-53.55,1.66A46.54,46.54,0,0,1,599.8,267a11.6,11.6,0,0,1-3.45-4.07c-3.34-5.91-4.86-11.89,0-17.84a9.53,9.53,0,0,0,.85-2c-19.2-2-37.1-7.88-54.87-15.73-.29,3.33-.54,6.26-.81,9.2-.48,5.3-.95,10.6-1.48,15.89a7.35,7.35,0,0,1-.72,2.62c-1.18,2.25-3.71,2.48-5.11.42-1.68-2.47-3.17-5.06-4.73-7.62q-8.31-13.62-16.61-27.24a16.73,16.73,0,0,0-9.93-7.72c-7.9-2.43-15.24-6-21.43-11.81-3-2.84-4.42-5.88-3.4-9.95.26-1,.39-2.11.54-3,9.26-3.8,15.67,1.41,21.52,7.07,3.79,3.67,6.72,8.23,9.94,12.47A11.86,11.86,0,0,0,516,212c6.3,2.11,12.49,4.52,18.73,6.8l2.13.76c0-4.74.2-9.37,0-14-.66-12.88-1.28-25.76-2.32-38.61-1.14-14.17-2.38-28.34-4.22-42.42q-3.35-25.83-7.81-51.49C519,52.65,514.94,32.28,511,11.9c-.48-2.5-1.75-4.86-2.66-7.28h-.89c-.92,1.23-1.93,2.42-2.77,3.7-4.89,7.53-7.8,15.93-10.79,24.3-13.67,38.3-27.31,76.61-38,115.88-7.08,25.95-13.55,52.05-18.06,78.59-1.54,9.09-2.43,18.28-3.54,27.44a2.74,2.74,0,0,0,.73,2.14c8.26,7.11,16.52,14.23,24.9,21.2,10.37,8.61,22,10.25,34.65,6,9.2-3.11,18.44-6.12,27.75-8.89,12.18-3.62,24.52-4.37,36.9-.86a9.41,9.41,0,0,1,3.4,1.43,3.29,3.29,0,0,1,.78,2.6c-.05.46-1.2,1-1.9,1.12a9,9,0,0,1-3.22-.25c-13.17-3.47-26.1-1.91-38.86,1.94-7.62,2.31-15.13,5-22.66,7.6-16.4,5.63-30.73,2-43.42-9.43-6-5.4-12.15-10.62-18.24-15.92Zm101-16.33a10.32,10.32,0,0,0,.59-1.85c.33-6.21.67-12.42.85-18.64,0-.64-.93-1.63-1.65-1.92-4.14-1.69-8.34-3.23-12.53-4.77-1.34-.5-2.74-.86-4.78-1.49Zm-32.64-39.64.49-.67c-4.57-5.51-9.06-11.1-16-14.09a2.56,2.56,0,0,0-1.18-.34c-.93.11-2.08.12-2.66.67-.35.33-.08,1.83.39,2.42a19.91,19.91,0,0,0,4.42,4.63c3.84,2.43,7.93,4.48,11.95,6.62A14.09,14.09,0,0,0,502.73,207.33Zm120,24-.47-.86c-3.11.14-9.73,3.9-11.3,7Z"/><path class="cls-1" d="M535.37,247,517.85,218.3c2,.63,3.44,1,4.78,1.49,4.19,1.54,8.39,3.08,12.53,4.77.72.29,1.66,1.28,1.65,1.92-.18,6.22-.52,12.43-.85,18.64A10.32,10.32,0,0,1,535.37,247Z"/><path class="cls-1" d="M502.73,207.33a14.09,14.09,0,0,1-2.54-.76c-4-2.14-8.11-4.19-11.95-6.62a19.91,19.91,0,0,1-4.42-4.63c-.47-.59-.74-2.09-.39-2.42.58-.55,1.73-.56,2.66-.67a2.56,2.56,0,0,1,1.18.34c6.89,3,11.38,8.58,16,14.09Z"/><path class="cls-1" d="M622.72,231.31,611,237.43c1.57-3.08,8.19-6.84,11.3-7Z"/></g></svg>