<svg xmlns="http://www.w3.org/2000/svg" width="225" height="225" viewBox="0 0 225 225">
  <g id="Group_6" data-name="Group 6" transform="translate(-1266 -877)">
    <path id="Path_9" data-name="Path 9" d="M44,0H181a44,44,0,0,1,44,44V181a44,44,0,0,1-44,44H44A44,44,0,0,1,0,181V44A44,44,0,0,1,44,0Z" transform="translate(1266 877)" fill="#fceb7d"/>
    <g id="Rectangle_24" data-name="Rectangle 24" transform="translate(1300 911)" fill="#fceb7d" stroke="#fff" stroke-width="3">
      <rect width="156" height="156" rx="44" stroke="none"/>
      <rect x="1.5" y="1.5" width="153" height="153" rx="42.5" fill="none"/>
    </g>
    <g id="Ellipse_9" data-name="Ellipse 9" transform="translate(1341 951)" fill="#fceb7d" stroke="#fff" stroke-width="3">
      <ellipse cx="37.5" cy="38.5" rx="37.5" ry="38.5" stroke="none"/>
      <ellipse cx="37.5" cy="38.5" rx="36" ry="37" fill="none"/>
    </g>
    <g id="Ellipse_10" data-name="Ellipse 10" transform="translate(1414 937)" fill="#fceb7d" stroke="#fff" stroke-width="3">
      <ellipse cx="8.5" cy="9" rx="8.5" ry="9" stroke="none"/>
      <ellipse cx="8.5" cy="9" rx="7" ry="7.5" fill="none"/>
    </g>
  </g>
</svg>
